<?xml version="1.0" encoding="utf-8" standalone="no"?>
<!DOCTYPE svg PUBLIC "-//W3C//DTD SVG 1.1//EN"
  "http://www.w3.org/Graphics/SVG/1.1/DTD/svg11.dtd">
<svg xmlns:xlink="http://www.w3.org/1999/xlink" width="419.309375pt" height="283.375625pt" viewBox="0 0 419.309375 283.375625" xmlns="http://www.w3.org/2000/svg" version="1.1">
 <metadata>
  <rdf:RDF xmlns:dc="http://purl.org/dc/elements/1.1/" xmlns:cc="http://creativecommons.org/ns#" xmlns:rdf="http://www.w3.org/1999/02/22-rdf-syntax-ns#">
   <cc:Work>
    <dc:type rdf:resource="http://purl.org/dc/dcmitype/StillImage"/>
    <dc:date>2026-07-18T15:56:07.795668</dc:date>
    <dc:format>image/svg+xml</dc:format>
    <dc:creator>
     <cc:Agent>
      <dc:title>Matplotlib v3.9.0, https://matplotlib.org/</dc:title>
     </cc:Agent>
    </dc:creator>
   </cc:Work>
  </rdf:RDF>
 </metadata>
 <defs>
  <style type="text/css">*{stroke-linejoin: round; stroke-linecap: butt}</style>
 </defs>
 <g id="figure_1">
  <g id="patch_1">
   <path d="M 0 283.375625
L 419.309375 283.375625
L 419.309375 0
L 0 0
z
" style="fill: #ffffff"/>
  </g>
  <g id="axes_1">
   <g id="patch_2">
    <path d="M 25.109375 267.275625
L 415.709375 267.275625
L 415.709375 17.795625
L 25.109375 17.795625
z
" style="fill: #ffffff"/>
   </g>
   <g id="matplotlib.axis_1">
    <g id="xtick_1">
     <g id="line2d_1">
      <defs>
       <path id="m85a56c23ff" d="M 0 0
L 0 -3
" style="stroke: #000000; stroke-width: 0.5"/>
      </defs>
      <g>
       <use xlink:href="#m85a56c23ff" x="90.209375" y="267.275625" style="stroke: #000000; stroke-width: 0.5"/>
      </g>
     </g>
     <g id="line2d_2">
      <defs>
       <path id="ma2e858c61a" d="M 0 0
L 0 3
" style="stroke: #000000; stroke-width: 0.5"/>
      </defs>
      <g>
       <use xlink:href="#ma2e858c61a" x="90.209375" y="17.795625" style="stroke: #000000; stroke-width: 0.5"/>
      </g>
     </g>
     <g id="text_1">
      <!-- GALAXY -->
      <g transform="translate(69.103906 277.605313) scale(0.1 -0.1)">
       <defs>
        <path id="STIXGeneral-Regular-47" d="M 4538 2266
L 4538 2150
Q 4256 2125 4173 2035
Q 4090 1946 4090 1638
L 4090 358
Q 3539 -90 2464 -90
Q 1965 -90 1507 89
Q 1050 269 736 595
Q 205 1152 205 2093
Q 205 3155 890 3776
Q 1491 4326 2419 4326
Q 2829 4326 3270 4179
Q 3443 4115 3552 4115
Q 3654 4115 3731 4176
Q 3808 4237 3840 4326
L 3981 4326
L 4032 2976
L 3885 2976
Q 3680 3475 3430 3718
Q 3059 4070 2496 4070
Q 1856 4070 1427 3629
Q 934 3136 934 2074
Q 934 1190 1395 678
Q 1856 166 2618 166
Q 2982 166 3225 281
Q 3469 397 3469 557
L 3469 1562
Q 3469 1933 3376 2025
Q 3283 2118 2899 2150
L 2899 2266
L 4538 2266
z
" transform="scale(0.015625)"/>
        <path id="STIXGeneral-Regular-41" d="M 4525 0
L 2893 0
L 2893 122
Q 3149 122 3245 179
Q 3334 224 3334 333
Q 3334 499 3213 781
L 2950 1382
L 1274 1382
L 979 653
Q 922 506 922 384
Q 922 237 1027 179
Q 1133 122 1370 122
L 1370 0
L 96 0
L 96 122
Q 365 147 486 316
Q 608 486 902 1190
L 2221 4314
L 2349 4314
L 3923 710
Q 4064 378 4176 262
Q 4288 147 4525 122
L 4525 0
z
M 2861 1645
L 2118 3405
L 1382 1645
L 2861 1645
z
" transform="scale(0.015625)"/>
        <path id="STIXGeneral-Regular-4c" d="M 3827 1114
L 3520 0
L 77 0
L 77 122
Q 429 141 531 256
Q 634 371 634 736
L 634 3494
Q 634 3872 541 3981
Q 448 4090 77 4115
L 77 4237
L 1888 4237
L 1888 4115
Q 1498 4090 1392 3984
Q 1286 3878 1286 3507
L 1286 538
Q 1286 358 1398 304
Q 1510 250 1862 250
L 2310 250
Q 3085 250 3392 640
Q 3520 813 3661 1114
L 3827 1114
z
" transform="scale(0.015625)"/>
        <path id="STIXGeneral-Regular-58" d="M 4506 0
L 2611 0
L 2611 122
L 2778 134
Q 3098 154 3098 320
Q 3098 461 2771 947
L 2163 1850
L 1402 896
Q 1062 474 1062 326
Q 1062 230 1168 185
Q 1274 141 1549 122
L 1549 0
L 64 0
L 64 122
Q 314 147 470 268
Q 627 390 992 851
L 1990 2099
L 1312 3091
Q 864 3744 665 3913
Q 467 4083 141 4115
L 141 4237
L 2067 4237
L 2067 4115
L 1882 4109
Q 1734 4102 1660 4064
Q 1587 4026 1587 3923
Q 1587 3885 1596 3843
Q 1606 3802 1635 3744
Q 1664 3686 1689 3638
Q 1715 3590 1769 3507
Q 1824 3424 1862 3366
Q 1901 3309 1984 3190
Q 2067 3072 2118 2995
L 2400 2586
L 3117 3482
Q 3373 3795 3373 3910
Q 3373 4019 3283 4064
Q 3194 4109 2938 4115
L 2938 4237
L 4454 4237
L 4454 4115
Q 4147 4096 3968 3977
Q 3789 3859 3482 3482
L 2566 2349
L 3795 595
Q 3981 326 4115 240
Q 4250 154 4506 122
L 4506 0
z
" transform="scale(0.015625)"/>
        <path id="STIXGeneral-Regular-59" d="M 4499 4237
L 4499 4115
Q 4218 4090 4054 3955
Q 3891 3821 3616 3398
L 2669 1939
L 2669 710
Q 2669 346 2790 243
Q 2912 141 3328 122
L 3328 0
L 1370 0
L 1370 122
Q 1805 154 1910 259
Q 2016 365 2016 787
L 2016 1882
L 1178 3110
Q 742 3750 556 3926
Q 371 4102 141 4115
L 141 4237
L 1926 4237
L 1926 4115
L 1773 4109
Q 1472 4102 1472 3942
Q 1472 3808 1587 3642
L 2522 2227
L 3450 3648
Q 3539 3782 3539 3917
Q 3533 4026 3440 4067
Q 3347 4109 3104 4115
L 3104 4237
L 4499 4237
z
" transform="scale(0.015625)"/>
       </defs>
       <use xlink:href="#STIXGeneral-Regular-47"/>
       <use xlink:href="#STIXGeneral-Regular-41" x="72.199982"/>
       <use xlink:href="#STIXGeneral-Regular-4c" x="144.399963"/>
       <use xlink:href="#STIXGeneral-Regular-41" x="205.499954"/>
       <use xlink:href="#STIXGeneral-Regular-58" x="277.699936"/>
       <use xlink:href="#STIXGeneral-Regular-59" x="349.899918"/>
      </g>
     </g>
    </g>
    <g id="xtick_2">
     <g id="line2d_3">
      <g>
       <use xlink:href="#m85a56c23ff" x="220.409375" y="267.275625" style="stroke: #000000; stroke-width: 0.5"/>
      </g>
     </g>
     <g id="line2d_4">
      <g>
       <use xlink:href="#ma2e858c61a" x="220.409375" y="17.795625" style="stroke: #000000; stroke-width: 0.5"/>
      </g>
     </g>
     <g id="text_2">
      <!-- QSO -->
      <g transform="translate(210.409375 277.605313) scale(0.1 -0.1)">
       <defs>
        <path id="STIXGeneral-Regular-51" d="M 4486 -1133
L 4179 -1133
Q 2586 -1133 1958 -339
L 1696 -6
Q 1312 128 1097 265
Q 883 403 704 640
Q 218 1286 218 2125
Q 218 3123 806 3724
Q 1395 4326 2310 4326
Q 3232 4326 3817 3721
Q 4403 3117 4403 2131
Q 4403 1568 4236 1158
Q 4070 749 3712 410
Q 3514 211 3293 115
Q 3072 19 2726 -45
Q 3066 -531 3491 -758
Q 3917 -986 4486 -1018
L 4486 -1133
z
M 3674 2163
Q 3674 2714 3520 3146
Q 3366 3578 3091 3808
Q 2746 4096 2291 4096
Q 1741 4096 1370 3642
Q 1178 3418 1062 3008
Q 947 2598 947 2144
Q 947 1158 1318 640
Q 1472 416 1750 278
Q 2029 141 2310 141
Q 2867 141 3264 602
Q 3456 819 3565 1248
Q 3674 1677 3674 2163
z
" transform="scale(0.015625)"/>
        <path id="STIXGeneral-Regular-53" d="M 3002 2963
L 2842 2963
Q 2733 3360 2579 3565
Q 2189 4064 1651 4064
Q 1357 4064 1181 3894
Q 1005 3725 1005 3456
Q 1005 3328 1069 3206
Q 1133 3085 1206 2998
Q 1280 2912 1465 2784
Q 1651 2656 1766 2589
Q 1882 2522 2150 2362
Q 2669 2061 2905 1763
Q 3142 1466 3142 1107
Q 3142 576 2771 243
Q 2400 -90 1837 -90
Q 1421 -90 1082 58
Q 915 128 781 128
Q 704 128 653 70
Q 602 13 602 -83
L 461 -83
L 275 1274
L 416 1274
Q 845 141 1734 141
Q 2074 141 2285 342
Q 2496 544 2496 858
Q 2496 1158 2310 1363
Q 2003 1696 1235 2106
Q 454 2522 454 3206
Q 454 3718 768 4022
Q 1082 4326 1568 4326
Q 1907 4326 2240 4186
Q 2413 4109 2522 4109
Q 2688 4109 2726 4326
L 2861 4326
L 3002 2963
z
" transform="scale(0.015625)"/>
        <path id="STIXGeneral-Regular-4f" d="M 4403 2118
Q 4403 1133 3820 521
Q 3238 -90 2310 -90
Q 1376 -90 797 524
Q 218 1139 218 2138
Q 218 3110 797 3718
Q 1376 4326 2310 4326
Q 3245 4326 3824 3702
Q 4403 3078 4403 2118
z
M 3674 2157
Q 3674 2701 3520 3133
Q 3366 3565 3091 3795
Q 2733 4096 2304 4096
Q 1760 4096 1389 3667
Q 1184 3437 1065 3011
Q 947 2586 947 2125
Q 947 960 1523 429
Q 1837 141 2317 141
Q 2816 141 3142 448
Q 3674 960 3674 2157
z
" transform="scale(0.015625)"/>
       </defs>
       <use xlink:href="#STIXGeneral-Regular-51"/>
       <use xlink:href="#STIXGeneral-Regular-53" x="72.199982"/>
       <use xlink:href="#STIXGeneral-Regular-4f" x="127.799973"/>
      </g>
     </g>
    </g>
    <g id="xtick_3">
     <g id="line2d_5">
      <g>
       <use xlink:href="#m85a56c23ff" x="350.609375" y="267.275625" style="stroke: #000000; stroke-width: 0.5"/>
      </g>
     </g>
     <g id="line2d_6">
      <g>
       <use xlink:href="#ma2e858c61a" x="350.609375" y="17.795625" style="stroke: #000000; stroke-width: 0.5"/>
      </g>
     </g>
     <g id="text_3">
      <!-- STAR -->
      <g transform="translate(337.829687 277.605313) scale(0.1 -0.1)">
       <defs>
        <path id="STIXGeneral-Regular-54" d="M 3795 3149
L 3642 3149
Q 3539 3674 3353 3821
Q 3168 3968 2656 3968
L 2278 3968
L 2278 710
Q 2278 346 2387 243
Q 2496 141 2893 122
L 2893 0
L 1024 0
L 1024 122
Q 1427 147 1526 256
Q 1626 365 1626 787
L 1626 3968
L 1242 3968
Q 723 3968 540 3817
Q 358 3667 262 3149
L 109 3149
L 154 4237
L 3750 4237
L 3795 3149
z
" transform="scale(0.015625)"/>
        <path id="STIXGeneral-Regular-52" d="M 4224 0
L 3187 0
L 1664 1971
L 1306 1958
L 1306 717
Q 1306 352 1405 249
Q 1504 147 1875 122
L 1875 0
L 109 0
L 109 122
Q 474 154 563 262
Q 653 371 653 794
L 653 3526
Q 653 3885 563 3987
Q 474 4090 109 4115
L 109 4237
L 1850 4237
Q 2726 4237 3187 3859
Q 3501 3603 3501 3091
Q 3501 2221 2342 2042
L 3622 422
Q 3757 256 3878 198
Q 4000 141 4224 122
L 4224 0
z
M 1306 3731
L 1306 2195
Q 1766 2202 1990 2246
Q 2214 2291 2438 2413
Q 2803 2618 2803 3142
Q 2803 4000 1632 4000
Q 1459 4000 1382 3945
Q 1306 3891 1306 3731
z
" transform="scale(0.015625)"/>
       </defs>
       <use xlink:href="#STIXGeneral-Regular-53"/>
       <use xlink:href="#STIXGeneral-Regular-54" x="55.599991"/>
       <use xlink:href="#STIXGeneral-Regular-41" x="116.699982"/>
       <use xlink:href="#STIXGeneral-Regular-52" x="188.899963"/>
      </g>
     </g>
    </g>
    <g id="xtick_4">
     <g id="line2d_7">
      <defs>
       <path id="m0eec7a624a" d="M 0 0
L 0 -1.5
" style="stroke: #000000; stroke-width: 0.5"/>
      </defs>
      <g>
       <use xlink:href="#m0eec7a624a" x="38.129375" y="267.275625" style="stroke: #000000; stroke-width: 0.5"/>
      </g>
     </g>
     <g id="line2d_8">
      <defs>
       <path id="mb74315ef0f" d="M 0 0
L 0 1.5
" style="stroke: #000000; stroke-width: 0.5"/>
      </defs>
      <g>
       <use xlink:href="#mb74315ef0f" x="38.129375" y="17.795625" style="stroke: #000000; stroke-width: 0.5"/>
      </g>
     </g>
    </g>
    <g id="xtick_5">
     <g id="line2d_9">
      <g>
       <use xlink:href="#m0eec7a624a" x="64.169375" y="267.275625" style="stroke: #000000; stroke-width: 0.5"/>
      </g>
     </g>
     <g id="line2d_10">
      <g>
       <use xlink:href="#mb74315ef0f" x="64.169375" y="17.795625" style="stroke: #000000; stroke-width: 0.5"/>
      </g>
     </g>
    </g>
    <g id="xtick_6">
     <g id="line2d_11">
      <g>
       <use xlink:href="#m0eec7a624a" x="116.249375" y="267.275625" style="stroke: #000000; stroke-width: 0.5"/>
      </g>
     </g>
     <g id="line2d_12">
      <g>
       <use xlink:href="#mb74315ef0f" x="116.249375" y="17.795625" style="stroke: #000000; stroke-width: 0.5"/>
      </g>
     </g>
    </g>
    <g id="xtick_7">
     <g id="line2d_13">
      <g>
       <use xlink:href="#m0eec7a624a" x="142.289375" y="267.275625" style="stroke: #000000; stroke-width: 0.5"/>
      </g>
     </g>
     <g id="line2d_14">
      <g>
       <use xlink:href="#mb74315ef0f" x="142.289375" y="17.795625" style="stroke: #000000; stroke-width: 0.5"/>
      </g>
     </g>
    </g>
    <g id="xtick_8">
     <g id="line2d_15">
      <g>
       <use xlink:href="#m0eec7a624a" x="168.329375" y="267.275625" style="stroke: #000000; stroke-width: 0.5"/>
      </g>
     </g>
     <g id="line2d_16">
      <g>
       <use xlink:href="#mb74315ef0f" x="168.329375" y="17.795625" style="stroke: #000000; stroke-width: 0.5"/>
      </g>
     </g>
    </g>
    <g id="xtick_9">
     <g id="line2d_17">
      <g>
       <use xlink:href="#m0eec7a624a" x="194.369375" y="267.275625" style="stroke: #000000; stroke-width: 0.5"/>
      </g>
     </g>
     <g id="line2d_18">
      <g>
       <use xlink:href="#mb74315ef0f" x="194.369375" y="17.795625" style="stroke: #000000; stroke-width: 0.5"/>
      </g>
     </g>
    </g>
    <g id="xtick_10">
     <g id="line2d_19">
      <g>
       <use xlink:href="#m0eec7a624a" x="246.449375" y="267.275625" style="stroke: #000000; stroke-width: 0.5"/>
      </g>
     </g>
     <g id="line2d_20">
      <g>
       <use xlink:href="#mb74315ef0f" x="246.449375" y="17.795625" style="stroke: #000000; stroke-width: 0.5"/>
      </g>
     </g>
    </g>
    <g id="xtick_11">
     <g id="line2d_21">
      <g>
       <use xlink:href="#m0eec7a624a" x="272.489375" y="267.275625" style="stroke: #000000; stroke-width: 0.5"/>
      </g>
     </g>
     <g id="line2d_22">
      <g>
       <use xlink:href="#mb74315ef0f" x="272.489375" y="17.795625" style="stroke: #000000; stroke-width: 0.5"/>
      </g>
     </g>
    </g>
    <g id="xtick_12">
     <g id="line2d_23">
      <g>
       <use xlink:href="#m0eec7a624a" x="298.529375" y="267.275625" style="stroke: #000000; stroke-width: 0.5"/>
      </g>
     </g>
     <g id="line2d_24">
      <g>
       <use xlink:href="#mb74315ef0f" x="298.529375" y="17.795625" style="stroke: #000000; stroke-width: 0.5"/>
      </g>
     </g>
    </g>
    <g id="xtick_13">
     <g id="line2d_25">
      <g>
       <use xlink:href="#m0eec7a624a" x="324.569375" y="267.275625" style="stroke: #000000; stroke-width: 0.5"/>
      </g>
     </g>
     <g id="line2d_26">
      <g>
       <use xlink:href="#mb74315ef0f" x="324.569375" y="17.795625" style="stroke: #000000; stroke-width: 0.5"/>
      </g>
     </g>
    </g>
    <g id="xtick_14">
     <g id="line2d_27">
      <g>
       <use xlink:href="#m0eec7a624a" x="376.649375" y="267.275625" style="stroke: #000000; stroke-width: 0.5"/>
      </g>
     </g>
     <g id="line2d_28">
      <g>
       <use xlink:href="#mb74315ef0f" x="376.649375" y="17.795625" style="stroke: #000000; stroke-width: 0.5"/>
      </g>
     </g>
    </g>
    <g id="xtick_15">
     <g id="line2d_29">
      <g>
       <use xlink:href="#m0eec7a624a" x="402.689375" y="267.275625" style="stroke: #000000; stroke-width: 0.5"/>
      </g>
     </g>
     <g id="line2d_30">
      <g>
       <use xlink:href="#mb74315ef0f" x="402.689375" y="17.795625" style="stroke: #000000; stroke-width: 0.5"/>
      </g>
     </g>
    </g>
   </g>
   <g id="matplotlib.axis_2">
    <g id="ytick_1">
     <g id="line2d_31">
      <defs>
       <path id="mca510fea6f" d="M 0 0
L 3 0
" style="stroke: #000000; stroke-width: 0.5"/>
      </defs>
      <g>
       <use xlink:href="#mca510fea6f" x="25.109375" y="216.833763" style="stroke: #000000; stroke-width: 0.5"/>
      </g>
     </g>
     <g id="line2d_32">
      <defs>
       <path id="mc3ea034db3" d="M 0 0
L -3 0
" style="stroke: #000000; stroke-width: 0.5"/>
      </defs>
      <g>
       <use xlink:href="#mc3ea034db3" x="415.709375" y="216.833763" style="stroke: #000000; stroke-width: 0.5"/>
      </g>
     </g>
     <g id="text_4">
      <!-- $\mathdefault{1}$ -->
      <g transform="translate(16.609375 220.248607) scale(0.1 -0.1)">
       <defs>
        <path id="STIXGeneral-Regular-31" d="M 2522 0
L 755 0
L 755 96
Q 1107 115 1235 227
Q 1363 339 1363 608
L 1363 3482
Q 1363 3795 1171 3795
Q 1082 3795 883 3718
L 710 3654
L 710 3744
L 1856 4326
L 1914 4307
L 1914 486
Q 1914 275 2042 185
Q 2170 96 2522 96
L 2522 0
z
" transform="scale(0.015625)"/>
       </defs>
       <use xlink:href="#STIXGeneral-Regular-31" transform="translate(0 0.40625)"/>
      </g>
     </g>
    </g>
    <g id="ytick_2">
     <g id="line2d_33">
      <g>
       <use xlink:href="#mca510fea6f" x="25.109375" y="162.887435" style="stroke: #000000; stroke-width: 0.5"/>
      </g>
     </g>
     <g id="line2d_34">
      <g>
       <use xlink:href="#mc3ea034db3" x="415.709375" y="162.887435" style="stroke: #000000; stroke-width: 0.5"/>
      </g>
     </g>
     <g id="text_5">
      <!-- $\mathdefault{2}$ -->
      <g transform="translate(16.609375 166.302279) scale(0.1 -0.1)">
       <defs>
        <path id="STIXGeneral-Regular-32" d="M 3034 877
L 2688 0
L 186 0
L 186 77
L 1325 1286
Q 1773 1754 1965 2144
Q 2157 2534 2157 2950
Q 2157 3379 1920 3616
Q 1683 3853 1267 3853
Q 922 3853 720 3673
Q 518 3494 326 3021
L 192 3053
Q 301 3648 630 3987
Q 960 4326 1523 4326
Q 2054 4326 2380 4006
Q 2707 3686 2707 3200
Q 2707 2477 1888 1613
L 832 486
L 2330 486
Q 2541 486 2665 569
Q 2790 653 2944 915
L 3034 877
z
" transform="scale(0.015625)"/>
       </defs>
       <use xlink:href="#STIXGeneral-Regular-32" transform="translate(0 0.40625)"/>
      </g>
     </g>
    </g>
    <g id="ytick_3">
     <g id="line2d_35">
      <g>
       <use xlink:href="#mca510fea6f" x="25.109375" y="108.941107" style="stroke: #000000; stroke-width: 0.5"/>
      </g>
     </g>
     <g id="line2d_36">
      <g>
       <use xlink:href="#mc3ea034db3" x="415.709375" y="108.941107" style="stroke: #000000; stroke-width: 0.5"/>
      </g>
     </g>
     <g id="text_6">
      <!-- $\mathdefault{3}$ -->
      <g transform="translate(16.609375 112.35595) scale(0.1 -0.1)">
       <defs>
        <path id="STIXGeneral-Regular-33" d="M 390 3264
L 288 3290
Q 435 3770 748 4048
Q 1062 4326 1542 4326
Q 1990 4326 2265 4083
Q 2541 3840 2541 3450
Q 2541 2925 1946 2566
Q 2298 2413 2477 2227
Q 2758 1914 2758 1402
Q 2758 890 2464 506
Q 2246 211 1840 60
Q 1434 -90 979 -90
Q 262 -90 262 275
Q 262 378 339 442
Q 416 506 525 506
Q 685 506 915 339
Q 1197 141 1466 141
Q 1818 141 2058 425
Q 2298 710 2298 1120
Q 2298 1856 1632 2048
Q 1434 2112 979 2112
L 979 2202
Q 1338 2323 1517 2432
Q 2035 2726 2035 3290
Q 2035 3610 1852 3776
Q 1670 3942 1344 3942
Q 768 3942 390 3264
z
" transform="scale(0.015625)"/>
       </defs>
       <use xlink:href="#STIXGeneral-Regular-33" transform="translate(0 0.40625)"/>
      </g>
     </g>
    </g>
    <g id="ytick_4">
     <g id="line2d_37">
      <g>
       <use xlink:href="#mca510fea6f" x="25.109375" y="54.994778" style="stroke: #000000; stroke-width: 0.5"/>
      </g>
     </g>
     <g id="line2d_38">
      <g>
       <use xlink:href="#mc3ea034db3" x="415.709375" y="54.994778" style="stroke: #000000; stroke-width: 0.5"/>
      </g>
     </g>
     <g id="text_7">
      <!-- $\mathdefault{4}$ -->
      <g transform="translate(16.609375 58.409622) scale(0.1 -0.1)">
       <defs>
        <path id="STIXGeneral-Regular-34" d="M 3027 1069
L 2368 1069
L 2368 0
L 1869 0
L 1869 1069
L 77 1069
L 77 1478
L 2086 4326
L 2368 4326
L 2368 1478
L 3027 1478
L 3027 1069
z
M 1869 1478
L 1869 3674
L 333 1478
L 1869 1478
z
" transform="scale(0.015625)"/>
       </defs>
       <use xlink:href="#STIXGeneral-Regular-34" transform="translate(0 0.40625)"/>
      </g>
     </g>
    </g>
    <g id="ytick_5">
     <g id="line2d_39">
      <defs>
       <path id="m4bf599c2c9" d="M 0 0
L 1.5 0
" style="stroke: #000000; stroke-width: 0.5"/>
      </defs>
      <g>
       <use xlink:href="#m4bf599c2c9" x="25.109375" y="259.990826" style="stroke: #000000; stroke-width: 0.5"/>
      </g>
     </g>
     <g id="line2d_40">
      <defs>
       <path id="mb5c894f3d1" d="M 0 0
L -1.5 0
" style="stroke: #000000; stroke-width: 0.5"/>
      </defs>
      <g>
       <use xlink:href="#mb5c894f3d1" x="415.709375" y="259.990826" style="stroke: #000000; stroke-width: 0.5"/>
      </g>
     </g>
    </g>
    <g id="ytick_6">
     <g id="line2d_41">
      <g>
       <use xlink:href="#m4bf599c2c9" x="25.109375" y="249.20156" style="stroke: #000000; stroke-width: 0.5"/>
      </g>
     </g>
     <g id="line2d_42">
      <g>
       <use xlink:href="#mb5c894f3d1" x="415.709375" y="249.20156" style="stroke: #000000; stroke-width: 0.5"/>
      </g>
     </g>
    </g>
    <g id="ytick_7">
     <g id="line2d_43">
      <g>
       <use xlink:href="#m4bf599c2c9" x="25.109375" y="238.412294" style="stroke: #000000; stroke-width: 0.5"/>
      </g>
     </g>
     <g id="line2d_44">
      <g>
       <use xlink:href="#mb5c894f3d1" x="415.709375" y="238.412294" style="stroke: #000000; stroke-width: 0.5"/>
      </g>
     </g>
    </g>
    <g id="ytick_8">
     <g id="line2d_45">
      <g>
       <use xlink:href="#m4bf599c2c9" x="25.109375" y="227.623029" style="stroke: #000000; stroke-width: 0.5"/>
      </g>
     </g>
     <g id="line2d_46">
      <g>
       <use xlink:href="#mb5c894f3d1" x="415.709375" y="227.623029" style="stroke: #000000; stroke-width: 0.5"/>
      </g>
     </g>
    </g>
    <g id="ytick_9">
     <g id="line2d_47">
      <g>
       <use xlink:href="#m4bf599c2c9" x="25.109375" y="206.044497" style="stroke: #000000; stroke-width: 0.5"/>
      </g>
     </g>
     <g id="line2d_48">
      <g>
       <use xlink:href="#mb5c894f3d1" x="415.709375" y="206.044497" style="stroke: #000000; stroke-width: 0.5"/>
      </g>
     </g>
    </g>
    <g id="ytick_10">
     <g id="line2d_49">
      <g>
       <use xlink:href="#m4bf599c2c9" x="25.109375" y="195.255232" style="stroke: #000000; stroke-width: 0.5"/>
      </g>
     </g>
     <g id="line2d_50">
      <g>
       <use xlink:href="#mb5c894f3d1" x="415.709375" y="195.255232" style="stroke: #000000; stroke-width: 0.5"/>
      </g>
     </g>
    </g>
    <g id="ytick_11">
     <g id="line2d_51">
      <g>
       <use xlink:href="#m4bf599c2c9" x="25.109375" y="184.465966" style="stroke: #000000; stroke-width: 0.5"/>
      </g>
     </g>
     <g id="line2d_52">
      <g>
       <use xlink:href="#mb5c894f3d1" x="415.709375" y="184.465966" style="stroke: #000000; stroke-width: 0.5"/>
      </g>
     </g>
    </g>
    <g id="ytick_12">
     <g id="line2d_53">
      <g>
       <use xlink:href="#m4bf599c2c9" x="25.109375" y="173.6767" style="stroke: #000000; stroke-width: 0.5"/>
      </g>
     </g>
     <g id="line2d_54">
      <g>
       <use xlink:href="#mb5c894f3d1" x="415.709375" y="173.6767" style="stroke: #000000; stroke-width: 0.5"/>
      </g>
     </g>
    </g>
    <g id="ytick_13">
     <g id="line2d_55">
      <g>
       <use xlink:href="#m4bf599c2c9" x="25.109375" y="152.098169" style="stroke: #000000; stroke-width: 0.5"/>
      </g>
     </g>
     <g id="line2d_56">
      <g>
       <use xlink:href="#mb5c894f3d1" x="415.709375" y="152.098169" style="stroke: #000000; stroke-width: 0.5"/>
      </g>
     </g>
    </g>
    <g id="ytick_14">
     <g id="line2d_57">
      <g>
       <use xlink:href="#m4bf599c2c9" x="25.109375" y="141.308903" style="stroke: #000000; stroke-width: 0.5"/>
      </g>
     </g>
     <g id="line2d_58">
      <g>
       <use xlink:href="#mb5c894f3d1" x="415.709375" y="141.308903" style="stroke: #000000; stroke-width: 0.5"/>
      </g>
     </g>
    </g>
    <g id="ytick_15">
     <g id="line2d_59">
      <g>
       <use xlink:href="#m4bf599c2c9" x="25.109375" y="130.519638" style="stroke: #000000; stroke-width: 0.5"/>
      </g>
     </g>
     <g id="line2d_60">
      <g>
       <use xlink:href="#mb5c894f3d1" x="415.709375" y="130.519638" style="stroke: #000000; stroke-width: 0.5"/>
      </g>
     </g>
    </g>
    <g id="ytick_16">
     <g id="line2d_61">
      <g>
       <use xlink:href="#m4bf599c2c9" x="25.109375" y="119.730372" style="stroke: #000000; stroke-width: 0.5"/>
      </g>
     </g>
     <g id="line2d_62">
      <g>
       <use xlink:href="#mb5c894f3d1" x="415.709375" y="119.730372" style="stroke: #000000; stroke-width: 0.5"/>
      </g>
     </g>
    </g>
    <g id="ytick_17">
     <g id="line2d_63">
      <g>
       <use xlink:href="#m4bf599c2c9" x="25.109375" y="98.151841" style="stroke: #000000; stroke-width: 0.5"/>
      </g>
     </g>
     <g id="line2d_64">
      <g>
       <use xlink:href="#mb5c894f3d1" x="415.709375" y="98.151841" style="stroke: #000000; stroke-width: 0.5"/>
      </g>
     </g>
    </g>
    <g id="ytick_18">
     <g id="line2d_65">
      <g>
       <use xlink:href="#m4bf599c2c9" x="25.109375" y="87.362575" style="stroke: #000000; stroke-width: 0.5"/>
      </g>
     </g>
     <g id="line2d_66">
      <g>
       <use xlink:href="#mb5c894f3d1" x="415.709375" y="87.362575" style="stroke: #000000; stroke-width: 0.5"/>
      </g>
     </g>
    </g>
    <g id="ytick_19">
     <g id="line2d_67">
      <g>
       <use xlink:href="#m4bf599c2c9" x="25.109375" y="76.57331" style="stroke: #000000; stroke-width: 0.5"/>
      </g>
     </g>
     <g id="line2d_68">
      <g>
       <use xlink:href="#mb5c894f3d1" x="415.709375" y="76.57331" style="stroke: #000000; stroke-width: 0.5"/>
      </g>
     </g>
    </g>
    <g id="ytick_20">
     <g id="line2d_69">
      <g>
       <use xlink:href="#m4bf599c2c9" x="25.109375" y="65.784044" style="stroke: #000000; stroke-width: 0.5"/>
      </g>
     </g>
     <g id="line2d_70">
      <g>
       <use xlink:href="#mb5c894f3d1" x="415.709375" y="65.784044" style="stroke: #000000; stroke-width: 0.5"/>
      </g>
     </g>
    </g>
    <g id="ytick_21">
     <g id="line2d_71">
      <g>
       <use xlink:href="#m4bf599c2c9" x="25.109375" y="44.205513" style="stroke: #000000; stroke-width: 0.5"/>
      </g>
     </g>
     <g id="line2d_72">
      <g>
       <use xlink:href="#mb5c894f3d1" x="415.709375" y="44.205513" style="stroke: #000000; stroke-width: 0.5"/>
      </g>
     </g>
    </g>
    <g id="ytick_22">
     <g id="line2d_73">
      <g>
       <use xlink:href="#m4bf599c2c9" x="25.109375" y="33.416247" style="stroke: #000000; stroke-width: 0.5"/>
      </g>
     </g>
     <g id="line2d_74">
      <g>
       <use xlink:href="#mb5c894f3d1" x="415.709375" y="33.416247" style="stroke: #000000; stroke-width: 0.5"/>
      </g>
     </g>
    </g>
    <g id="ytick_23">
     <g id="line2d_75">
      <g>
       <use xlink:href="#m4bf599c2c9" x="25.109375" y="22.626981" style="stroke: #000000; stroke-width: 0.5"/>
      </g>
     </g>
     <g id="line2d_76">
      <g>
       <use xlink:href="#mb5c894f3d1" x="415.709375" y="22.626981" style="stroke: #000000; stroke-width: 0.5"/>
      </g>
     </g>
    </g>
    <g id="text_8">
     <!-- Sky/control residual-scale ratio -->
     <g transform="translate(10.429688 205.02625) rotate(-90) scale(0.1 -0.1)">
      <defs>
       <path id="STIXGeneral-Regular-6b" d="M 3232 0
L 1837 0
L 1837 96
L 1958 96
Q 2093 96 2093 192
Q 2093 250 2022 339
L 1062 1606
L 1062 429
Q 1062 262 1142 185
Q 1222 109 1414 102
L 1542 96
L 1542 0
L 45 0
L 45 96
Q 390 154 457 214
Q 525 275 525 525
L 525 3610
Q 525 3840 467 3920
Q 410 4000 250 4000
Q 211 4000 45 3987
L 45 4090
L 237 4141
Q 621 4243 1037 4371
L 1062 4358
L 1062 1670
L 1939 2451
Q 2086 2586 2086 2675
Q 2086 2739 2019 2761
Q 1952 2784 1766 2790
L 1766 2880
L 3072 2880
L 3072 2784
Q 2752 2784 2505 2646
Q 2259 2509 1690 1978
L 1504 1805
L 2483 563
Q 2829 122 3232 96
L 3232 0
z
" transform="scale(0.015625)"/>
       <path id="STIXGeneral-Regular-79" d="M 3040 2880
L 3040 2784
Q 2925 2771 2854 2700
Q 2784 2630 2720 2458
L 1760 -160
Q 1510 -838 1257 -1116
Q 1005 -1395 640 -1395
Q 435 -1395 313 -1289
Q 192 -1184 192 -1024
Q 192 -902 272 -816
Q 352 -730 467 -730
Q 653 -730 800 -813
Q 883 -858 966 -858
Q 1101 -858 1286 -576
Q 1376 -448 1459 -211
Q 1542 26 1542 115
Q 1542 198 1274 762
L 429 2566
Q 346 2752 90 2790
L 90 2880
L 1402 2880
L 1402 2784
Q 1197 2778 1117 2739
Q 1037 2701 1037 2611
Q 1037 2541 1120 2349
L 1837 749
L 2458 2515
Q 2483 2573 2483 2630
Q 2483 2784 2189 2784
L 2189 2880
L 3040 2880
z
" transform="scale(0.015625)"/>
       <path id="STIXGeneral-Regular-2f" d="M 1837 4326
L 378 -90
L -58 -90
L 1408 4326
L 1837 4326
z
" transform="scale(0.015625)"/>
       <path id="STIXGeneral-Regular-63" d="M 2547 998
L 2637 941
Q 2362 403 2112 205
Q 1786 -64 1376 -64
Q 845 -64 502 336
Q 160 736 160 1357
Q 160 2170 698 2618
Q 1094 2944 1562 2944
Q 1965 2944 2256 2749
Q 2547 2554 2547 2285
Q 2547 2176 2457 2096
Q 2368 2016 2246 2016
Q 2022 2016 1939 2310
L 1901 2451
Q 1850 2630 1773 2694
Q 1696 2758 1523 2758
Q 1133 2758 893 2451
Q 653 2144 653 1645
Q 653 1094 928 745
Q 1203 397 1645 397
Q 1920 397 2118 528
Q 2317 659 2547 998
z
" transform="scale(0.015625)"/>
       <path id="STIXGeneral-Regular-6f" d="M 3008 1478
Q 3008 806 2608 371
Q 2208 -64 1568 -64
Q 979 -64 582 368
Q 186 800 186 1459
Q 186 2125 582 2534
Q 979 2944 1626 2944
Q 2221 2944 2614 2537
Q 3008 2131 3008 1478
z
M 2432 1306
Q 2432 2035 2112 2445
Q 1856 2765 1504 2765
Q 1171 2765 966 2493
Q 762 2221 762 1747
Q 762 928 1101 435
Q 1318 115 1677 115
Q 2029 115 2230 432
Q 2432 749 2432 1306
z
" transform="scale(0.015625)"/>
       <path id="STIXGeneral-Regular-6e" d="M 3104 0
L 1773 0
L 1779 96
Q 2016 115 2096 233
Q 2176 352 2176 672
L 2176 1946
Q 2176 2592 1709 2592
Q 1549 2592 1408 2515
Q 1267 2438 1050 2227
L 1050 461
Q 1050 269 1136 192
Q 1222 115 1466 96
L 1466 0
L 115 0
L 115 96
Q 358 115 435 214
Q 512 314 512 602
L 512 2157
Q 512 2394 467 2483
Q 422 2573 288 2573
Q 160 2573 102 2547
L 102 2656
Q 550 2784 979 2944
L 1030 2925
L 1030 2426
L 1037 2426
Q 1491 2944 1958 2944
Q 2323 2944 2518 2688
Q 2714 2432 2714 1958
L 2714 544
Q 2714 288 2790 205
Q 2867 122 3104 96
L 3104 0
z
" transform="scale(0.015625)"/>
       <path id="STIXGeneral-Regular-74" d="M 1702 493
L 1786 422
Q 1478 -64 1011 -64
Q 448 -64 448 749
L 448 2675
L 109 2675
Q 83 2694 83 2720
Q 83 2771 192 2842
Q 435 2982 813 3526
Q 826 3546 874 3606
Q 922 3667 941 3706
Q 986 3706 986 3622
L 986 2880
L 1632 2880
L 1632 2675
L 986 2675
L 986 845
Q 986 538 1062 403
Q 1139 269 1318 269
Q 1510 269 1702 493
z
" transform="scale(0.015625)"/>
       <path id="STIXGeneral-Regular-72" d="M 1024 2931
L 1024 2342
Q 1267 2688 1430 2816
Q 1594 2944 1792 2944
Q 1958 2944 2051 2854
Q 2144 2765 2144 2605
Q 2144 2470 2077 2393
Q 2010 2317 1894 2317
Q 1773 2317 1638 2445
Q 1536 2541 1472 2541
Q 1338 2541 1181 2355
Q 1024 2170 1024 2016
L 1024 576
Q 1024 301 1133 205
Q 1242 109 1568 96
L 1568 0
L 32 0
L 32 96
Q 339 154 412 224
Q 486 294 486 538
L 486 2138
Q 486 2349 438 2435
Q 390 2522 269 2522
Q 166 2522 45 2496
L 45 2598
Q 448 2726 992 2944
L 1024 2931
z
" transform="scale(0.015625)"/>
       <path id="STIXGeneral-Regular-6c" d="M 1645 0
L 134 0
L 134 96
Q 435 122 531 221
Q 627 320 627 589
L 627 3590
Q 627 3821 569 3910
Q 512 4000 358 4000
Q 224 4000 122 3987
L 122 4090
Q 730 4237 1133 4371
L 1165 4346
L 1165 557
Q 1165 288 1254 201
Q 1344 115 1645 96
L 1645 0
z
" transform="scale(0.015625)"/>
       <path id="STIXGeneral-Regular-20" transform="scale(0.015625)"/>
       <path id="STIXGeneral-Regular-65" d="M 2611 1050
L 2714 1005
Q 2330 -64 1376 -64
Q 813 -64 486 329
Q 160 723 160 1389
Q 160 2074 525 2509
Q 890 2944 1485 2944
Q 2061 2944 2374 2502
Q 2560 2246 2592 1773
L 621 1773
Q 646 1370 700 1158
Q 755 947 915 730
Q 1184 378 1626 378
Q 1939 378 2153 531
Q 2368 685 2611 1050
z
M 634 1978
L 1939 1978
Q 1882 2381 1750 2547
Q 1619 2714 1312 2714
Q 1043 2714 864 2525
Q 685 2336 634 1978
z
" transform="scale(0.015625)"/>
       <path id="STIXGeneral-Regular-73" d="M 998 1926
L 1664 1523
Q 1984 1331 2105 1164
Q 2227 998 2227 736
Q 2227 416 1961 176
Q 1696 -64 1331 -64
Q 1030 -64 864 -6
Q 691 51 570 51
Q 461 51 416 -26
L 333 -26
L 333 979
L 435 979
Q 538 512 730 294
Q 922 77 1248 77
Q 1485 77 1632 211
Q 1779 346 1779 550
Q 1779 845 1440 1030
L 1094 1222
Q 326 1651 326 2150
Q 326 2522 566 2730
Q 806 2938 1210 2938
Q 1491 2938 1638 2867
Q 1754 2816 1818 2816
Q 1862 2816 1920 2880
L 1990 2880
L 2022 2010
L 1926 2010
Q 1818 2445 1654 2621
Q 1491 2797 1203 2797
Q 986 2797 854 2688
Q 723 2579 723 2362
Q 723 2253 796 2128
Q 870 2003 998 1926
z
" transform="scale(0.015625)"/>
       <path id="STIXGeneral-Regular-69" d="M 1152 4045
Q 1152 3904 1056 3811
Q 960 3718 819 3718
Q 685 3718 592 3811
Q 499 3904 499 4045
Q 499 4179 595 4275
Q 691 4371 826 4371
Q 966 4371 1059 4275
Q 1152 4179 1152 4045
z
M 1619 0
L 102 0
L 102 96
Q 435 115 521 211
Q 608 307 608 666
L 608 2118
Q 608 2342 563 2432
Q 518 2522 397 2522
Q 243 2522 128 2490
L 128 2592
L 1120 2944
L 1146 2918
L 1146 672
Q 1146 314 1226 218
Q 1306 122 1619 96
L 1619 0
z
" transform="scale(0.015625)"/>
       <path id="STIXGeneral-Regular-64" d="M 3142 269
L 2202 -64
L 2176 -45
L 2176 365
Q 1869 -64 1357 -64
Q 826 -64 499 317
Q 173 698 173 1312
Q 173 1990 563 2467
Q 954 2944 1504 2944
Q 1850 2944 2176 2669
L 2176 3667
Q 2176 3866 2118 3930
Q 2061 3994 1882 3994
Q 1792 3994 1741 3987
L 1741 4090
Q 2323 4243 2682 4371
L 2714 4358
L 2714 730
Q 2714 506 2768 435
Q 2822 365 2995 365
Q 3034 365 3142 371
L 3142 269
z
M 2176 653
L 2176 2125
Q 2176 2381 1981 2573
Q 1786 2765 1523 2765
Q 1158 2765 940 2438
Q 723 2112 723 1568
Q 723 979 963 624
Q 1203 269 1606 269
Q 1907 269 2080 474
Q 2176 582 2176 653
z
" transform="scale(0.015625)"/>
       <path id="STIXGeneral-Regular-75" d="M 3072 320
L 3072 230
Q 2573 96 2195 -58
L 2163 -38
L 2163 486
L 2150 486
Q 1747 -64 1235 -64
Q 870 -64 662 160
Q 454 384 454 755
L 454 2362
Q 454 2598 371 2688
Q 288 2778 58 2790
L 58 2880
L 992 2880
L 992 813
Q 992 595 1123 451
Q 1254 307 1446 307
Q 1760 307 1984 506
Q 2067 582 2099 649
Q 2131 717 2131 877
L 2131 2355
Q 2131 2605 2041 2678
Q 1952 2752 1658 2771
L 1658 2880
L 2669 2880
L 2669 685
Q 2669 461 2742 390
Q 2816 320 3034 320
L 3072 320
z
" transform="scale(0.015625)"/>
       <path id="STIXGeneral-Regular-61" d="M 2829 422
L 2829 243
Q 2586 -64 2253 -64
Q 1888 -64 1843 403
L 1837 403
Q 1427 -64 909 -64
Q 608 -64 422 112
Q 237 288 237 602
Q 237 1050 685 1350
Q 992 1555 1837 1869
L 1837 2214
Q 1837 2502 1699 2646
Q 1562 2790 1338 2790
Q 1146 2790 1018 2697
Q 890 2605 890 2477
Q 890 2419 909 2348
Q 928 2278 928 2208
Q 928 2112 841 2029
Q 755 1946 634 1946
Q 525 1946 441 2029
Q 358 2112 358 2240
Q 358 2547 685 2752
Q 986 2944 1421 2944
Q 1939 2944 2176 2656
Q 2291 2522 2323 2384
Q 2355 2246 2355 1946
L 2355 723
Q 2355 301 2554 301
Q 2682 301 2829 422
z
M 1837 813
L 1837 1715
Q 1248 1510 1018 1293
Q 800 1094 800 800
Q 800 557 921 432
Q 1043 307 1242 307
Q 1453 307 1613 410
Q 1747 506 1792 589
Q 1837 672 1837 813
z
" transform="scale(0.015625)"/>
       <path id="STIXGeneral-Regular-2d" d="M 1824 1242
L 250 1242
L 250 1645
L 1824 1645
L 1824 1242
z
" transform="scale(0.015625)"/>
      </defs>
      <use xlink:href="#STIXGeneral-Regular-53"/>
      <use xlink:href="#STIXGeneral-Regular-6b" x="55.599991"/>
      <use xlink:href="#STIXGeneral-Regular-79" x="105.599976"/>
      <use xlink:href="#STIXGeneral-Regular-2f" x="155.59996"/>
      <use xlink:href="#STIXGeneral-Regular-63" x="183.399948"/>
      <use xlink:href="#STIXGeneral-Regular-6f" x="227.799942"/>
      <use xlink:href="#STIXGeneral-Regular-6e" x="277.799927"/>
      <use xlink:href="#STIXGeneral-Regular-74" x="327.799911"/>
      <use xlink:href="#STIXGeneral-Regular-72" x="355.599899"/>
      <use xlink:href="#STIXGeneral-Regular-6f" x="388.899887"/>
      <use xlink:href="#STIXGeneral-Regular-6c" x="438.899872"/>
      <use xlink:href="#STIXGeneral-Regular-20" x="466.69986"/>
      <use xlink:href="#STIXGeneral-Regular-72" x="491.699844"/>
      <use xlink:href="#STIXGeneral-Regular-65" x="524.999832"/>
      <use xlink:href="#STIXGeneral-Regular-73" x="569.399826"/>
      <use xlink:href="#STIXGeneral-Regular-69" x="608.29982"/>
      <use xlink:href="#STIXGeneral-Regular-64" x="636.099808"/>
      <use xlink:href="#STIXGeneral-Regular-75" x="686.099792"/>
      <use xlink:href="#STIXGeneral-Regular-61" x="736.099777"/>
      <use xlink:href="#STIXGeneral-Regular-6c" x="780.499771"/>
      <use xlink:href="#STIXGeneral-Regular-2d" x="808.299759"/>
      <use xlink:href="#STIXGeneral-Regular-73" x="841.599747"/>
      <use xlink:href="#STIXGeneral-Regular-63" x="880.499741"/>
      <use xlink:href="#STIXGeneral-Regular-61" x="924.899734"/>
      <use xlink:href="#STIXGeneral-Regular-6c" x="969.299728"/>
      <use xlink:href="#STIXGeneral-Regular-65" x="997.099716"/>
      <use xlink:href="#STIXGeneral-Regular-20" x="1041.49971"/>
      <use xlink:href="#STIXGeneral-Regular-72" x="1066.499695"/>
      <use xlink:href="#STIXGeneral-Regular-61" x="1099.799683"/>
      <use xlink:href="#STIXGeneral-Regular-74" x="1144.199677"/>
      <use xlink:href="#STIXGeneral-Regular-69" x="1171.999664"/>
      <use xlink:href="#STIXGeneral-Regular-6f" x="1199.799652"/>
     </g>
    </g>
   </g>
   <g id="line2d_77">
    <path d="M 70.679375 216.292774
L 109.739375 216.292774
L 109.739375 166.657381
L 70.679375 166.657381
L 70.679375 216.292774
" clip-path="url(#p719a2e745f)" style="fill: none; stroke: #000000; stroke-linecap: square"/>
   </g>
   <g id="line2d_78">
    <path d="M 90.209375 216.292774
L 90.209375 243.570227
" clip-path="url(#p719a2e745f)" style="fill: none; stroke: #000000; stroke-linecap: square"/>
   </g>
   <g id="line2d_79">
    <path d="M 90.209375 166.657381
L 90.209375 106.790919
" clip-path="url(#p719a2e745f)" style="fill: none; stroke: #000000; stroke-linecap: square"/>
   </g>
   <g id="line2d_80">
    <path d="M 80.444375 243.570227
L 99.974375 243.570227
" clip-path="url(#p719a2e745f)" style="fill: none; stroke: #000000; stroke-linecap: square"/>
   </g>
   <g id="line2d_81">
    <path d="M 80.444375 106.790919
L 99.974375 106.790919
" clip-path="url(#p719a2e745f)" style="fill: none; stroke: #000000; stroke-linecap: square"/>
   </g>
   <g id="line2d_82">
    <defs>
     <path id="maf8eb54d1f" d="M 0 3
C 0.795609 3 1.55874 2.683901 2.12132 2.12132
C 2.683901 1.55874 3 0.795609 3 0
C 3 -0.795609 2.683901 -1.55874 2.12132 -2.12132
C 1.55874 -2.683901 0.795609 -3 0 -3
C -0.795609 -3 -1.55874 -2.683901 -2.12132 -2.12132
C -2.683901 -1.55874 -3 -0.795609 -3 0
C -3 0.795609 -2.683901 1.55874 -2.12132 2.12132
C -1.55874 2.683901 -0.795609 3 0 3
z
" style="stroke: #000000"/>
    </defs>
    <g clip-path="url(#p719a2e745f)">
     <use xlink:href="#maf8eb54d1f" x="90.209375" y="29.135625" style="fill-opacity: 0; stroke: #000000"/>
     <use xlink:href="#maf8eb54d1f" x="90.209375" y="87.456402" style="fill-opacity: 0; stroke: #000000"/>
     <use xlink:href="#maf8eb54d1f" x="90.209375" y="30.960617" style="fill-opacity: 0; stroke: #000000"/>
    </g>
   </g>
   <g id="line2d_83">
    <path d="M 200.879375 235.557905
L 239.939375 235.557905
L 239.939375 198.567993
L 200.879375 198.567993
L 200.879375 235.557905
" clip-path="url(#p719a2e745f)" style="fill: none; stroke: #000000; stroke-linecap: square"/>
   </g>
   <g id="line2d_84">
    <path d="M 220.409375 235.557905
L 220.409375 255.935625
" clip-path="url(#p719a2e745f)" style="fill: none; stroke: #000000; stroke-linecap: square"/>
   </g>
   <g id="line2d_85">
    <path d="M 220.409375 198.567993
L 220.409375 198.567993
" clip-path="url(#p719a2e745f)" style="fill: none; stroke: #000000; stroke-linecap: square"/>
   </g>
   <g id="line2d_86">
    <path d="M 210.644375 255.935625
L 230.174375 255.935625
" clip-path="url(#p719a2e745f)" style="fill: none; stroke: #000000; stroke-linecap: square"/>
   </g>
   <g id="line2d_87">
    <path d="M 210.644375 198.567993
L 230.174375 198.567993
" clip-path="url(#p719a2e745f)" style="fill: none; stroke: #000000; stroke-linecap: square"/>
   </g>
   <g id="line2d_88">
    <g clip-path="url(#p719a2e745f)">
     <use xlink:href="#maf8eb54d1f" x="220.409375" y="112.307505" style="fill-opacity: 0; stroke: #000000"/>
    </g>
   </g>
   <g id="line2d_89">
    <path d="M 331.079375 221.961177
L 370.139375 221.961177
L 370.139375 206.206909
L 331.079375 206.206909
L 331.079375 221.961177
" clip-path="url(#p719a2e745f)" style="fill: none; stroke: #000000; stroke-linecap: square"/>
   </g>
   <g id="line2d_90">
    <path d="M 350.609375 221.961177
L 350.609375 234.829777
" clip-path="url(#p719a2e745f)" style="fill: none; stroke: #000000; stroke-linecap: square"/>
   </g>
   <g id="line2d_91">
    <path d="M 350.609375 206.206909
L 350.609375 205.187267
" clip-path="url(#p719a2e745f)" style="fill: none; stroke: #000000; stroke-linecap: square"/>
   </g>
   <g id="line2d_92">
    <path d="M 340.844375 234.829777
L 360.374375 234.829777
" clip-path="url(#p719a2e745f)" style="fill: none; stroke: #000000; stroke-linecap: square"/>
   </g>
   <g id="line2d_93">
    <path d="M 340.844375 205.187267
L 360.374375 205.187267
" clip-path="url(#p719a2e745f)" style="fill: none; stroke: #000000; stroke-linecap: square"/>
   </g>
   <g id="line2d_94"/>
   <g id="line2d_95">
    <path d="M 25.109375 216.833763
L 415.709375 216.833763
" clip-path="url(#p719a2e745f)" style="fill: none; stroke-dasharray: 2.96,1.28; stroke-dashoffset: 0; stroke: #000000; stroke-width: 0.8"/>
   </g>
   <g id="line2d_96">
    <path d="M 70.679375 197.169401
L 109.739375 197.169401
" clip-path="url(#p719a2e745f)" style="fill: none; stroke: #00b945"/>
   </g>
   <g id="line2d_97">
    <path d="M 200.879375 219.047611
L 239.939375 219.047611
" clip-path="url(#p719a2e745f)" style="fill: none; stroke: #00b945"/>
   </g>
   <g id="line2d_98">
    <path d="M 331.079375 211.098426
L 370.139375 211.098426
" clip-path="url(#p719a2e745f)" style="fill: none; stroke: #00b945"/>
   </g>
   <g id="patch_3">
    <path d="M 25.109375 267.275625
L 25.109375 17.795625
" style="fill: none; stroke: #000000; stroke-width: 0.5; stroke-linejoin: miter; stroke-linecap: square"/>
   </g>
   <g id="patch_4">
    <path d="M 415.709375 267.275625
L 415.709375 17.795625
" style="fill: none; stroke: #000000; stroke-width: 0.5; stroke-linejoin: miter; stroke-linecap: square"/>
   </g>
   <g id="patch_5">
    <path d="M 25.109375 267.275625
L 415.709375 267.275625
" style="fill: none; stroke: #000000; stroke-width: 0.5; stroke-linejoin: miter; stroke-linecap: square"/>
   </g>
   <g id="patch_6">
    <path d="M 25.109375 17.795625
L 415.709375 17.795625
" style="fill: none; stroke: #000000; stroke-width: 0.5; stroke-linejoin: miter; stroke-linecap: square"/>
   </g>
   <g id="text_9">
    <!-- Class comparison -->
    <g transform="translate(177.909688 11.795625) scale(0.12 -0.12)">
     <defs>
      <path id="STIXGeneral-Regular-43" d="M 3930 838
L 4051 723
Q 3482 -90 2304 -90
Q 1376 -90 794 480
Q 179 1082 179 2080
Q 179 3014 755 3661
Q 1357 4326 2310 4326
Q 2720 4326 3072 4230
Q 3475 4115 3514 4115
Q 3725 4115 3782 4326
L 3910 4326
L 3968 2874
L 3821 2874
Q 3718 3334 3488 3584
Q 3034 4070 2458 4070
Q 1747 4070 1334 3548
Q 922 3027 922 2182
Q 922 1152 1382 653
Q 1811 192 2522 192
Q 2944 192 3251 339
Q 3558 486 3930 838
z
" transform="scale(0.015625)"/>
      <path id="STIXGeneral-Regular-6d" d="M 4960 0
L 3565 0
L 3565 96
Q 3834 122 3907 208
Q 3981 294 3981 576
L 3981 1894
Q 3981 2278 3869 2444
Q 3757 2611 3488 2611
Q 3264 2611 3107 2521
Q 2950 2432 2803 2221
L 2803 608
Q 2803 301 2896 201
Q 2989 102 3264 96
L 3264 0
L 1830 0
L 1830 96
Q 2112 115 2189 188
Q 2266 262 2266 550
L 2266 1901
Q 2266 2611 1850 2611
Q 1670 2611 1468 2531
Q 1267 2451 1171 2336
Q 1088 2240 1088 2227
L 1088 448
Q 1088 243 1177 176
Q 1267 109 1523 96
L 1523 0
L 102 0
L 102 96
Q 371 102 460 195
Q 550 288 550 563
L 550 2150
Q 550 2387 499 2480
Q 448 2573 326 2573
Q 230 2573 122 2547
L 122 2656
Q 557 2778 1011 2944
L 1062 2925
L 1062 2451
L 1075 2451
Q 1363 2752 1584 2848
Q 1805 2944 2054 2944
Q 2560 2944 2733 2406
Q 3232 2944 3776 2944
Q 4518 2944 4518 1792
L 4518 493
Q 4518 282 4582 202
Q 4646 122 4794 109
L 4960 96
L 4960 0
z
" transform="scale(0.015625)"/>
      <path id="STIXGeneral-Regular-70" d="M 1018 2931
L 1018 2438
Q 1421 2944 1939 2944
Q 2406 2944 2707 2560
Q 3008 2176 3008 1581
Q 3008 883 2621 409
Q 2234 -64 1664 -64
Q 1466 -64 1328 -6
Q 1190 51 1018 211
L 1018 -794
Q 1018 -1094 1120 -1180
Q 1222 -1267 1581 -1274
L 1581 -1389
L 32 -1389
L 32 -1280
Q 314 -1254 397 -1171
Q 480 -1088 480 -838
L 480 2157
Q 480 2381 429 2451
Q 378 2522 218 2522
Q 115 2522 58 2515
L 58 2618
Q 506 2752 979 2944
L 1018 2931
z
M 1018 2138
L 1018 563
Q 1018 422 1238 281
Q 1459 141 1683 141
Q 2029 141 2243 467
Q 2458 794 2458 1325
Q 2458 1888 2243 2224
Q 2029 2560 1670 2560
Q 1446 2560 1232 2419
Q 1018 2278 1018 2138
z
" transform="scale(0.015625)"/>
     </defs>
     <use xlink:href="#STIXGeneral-Regular-43"/>
     <use xlink:href="#STIXGeneral-Regular-6c" x="66.699997"/>
     <use xlink:href="#STIXGeneral-Regular-61" x="94.499985"/>
     <use xlink:href="#STIXGeneral-Regular-73" x="138.899979"/>
     <use xlink:href="#STIXGeneral-Regular-73" x="177.799973"/>
     <use xlink:href="#STIXGeneral-Regular-20" x="216.699966"/>
     <use xlink:href="#STIXGeneral-Regular-63" x="241.699951"/>
     <use xlink:href="#STIXGeneral-Regular-6f" x="286.099945"/>
     <use xlink:href="#STIXGeneral-Regular-6d" x="336.09993"/>
     <use xlink:href="#STIXGeneral-Regular-70" x="413.899918"/>
     <use xlink:href="#STIXGeneral-Regular-61" x="463.899902"/>
     <use xlink:href="#STIXGeneral-Regular-72" x="508.299896"/>
     <use xlink:href="#STIXGeneral-Regular-69" x="541.599884"/>
     <use xlink:href="#STIXGeneral-Regular-73" x="569.399872"/>
     <use xlink:href="#STIXGeneral-Regular-6f" x="608.299866"/>
     <use xlink:href="#STIXGeneral-Regular-6e" x="658.29985"/>
    </g>
   </g>
  </g>
 </g>
 <defs>
  <clipPath id="p719a2e745f">
   <rect x="25.109375" y="17.795625" width="390.6" height="249.48"/>
  </clipPath>
 </defs>
</svg>
